<mxfile host="app.diagrams.net" agent="Mozilla/5.0 (Windows NT 10.0; Win64; x64) AppleWebKit/537.36 (KHTML, like Gecko) Chrome/134.0.0.0 Safari/537.36 OPR/119.0.0.0" version="26.2.14">
  <diagram name="Page-1" id="lY8ImCbq6xqDSYd5CE9Q">
    <mxGraphModel dx="1624" dy="802" grid="0" gridSize="10" guides="1" tooltips="1" connect="1" arrows="1" fold="1" page="1" pageScale="1" pageWidth="1700" pageHeight="1100" math="0" shadow="0">
      <root>
        <mxCell id="0" />
        <mxCell id="1" parent="0" />
        <mxCell id="h6P8nCgVh_O-HDzW5caL-2" value="&lt;font style=&quot;font-size: 18px;&quot;&gt;Build&lt;/font&gt;" style="ellipse;whiteSpace=wrap;html=1;aspect=fixed;" parent="1" vertex="1">
          <mxGeometry x="442" y="770" width="100" height="100" as="geometry" />
        </mxCell>
        <mxCell id="h6P8nCgVh_O-HDzW5caL-3" value="&lt;font style=&quot;font-size: 18px;&quot;&gt;Docker&amp;nbsp;&lt;/font&gt;&lt;div&gt;&lt;font style=&quot;font-size: 18px;&quot;&gt;Image CI&lt;/font&gt;&lt;/div&gt;" style="rounded=1;whiteSpace=wrap;html=1;" parent="1" vertex="1">
          <mxGeometry x="193" y="790" width="120" height="60" as="geometry" />
        </mxCell>
        <mxCell id="h6P8nCgVh_O-HDzW5caL-4" style="edgeStyle=orthogonalEdgeStyle;rounded=0;orthogonalLoop=1;jettySize=auto;html=1;entryX=0;entryY=0.5;entryDx=0;entryDy=0;" parent="1" source="h6P8nCgVh_O-HDzW5caL-5" target="h6P8nCgVh_O-HDzW5caL-11" edge="1">
          <mxGeometry relative="1" as="geometry" />
        </mxCell>
        <mxCell id="h6P8nCgVh_O-HDzW5caL-5" value="&lt;font style=&quot;font-size: 18px;&quot;&gt;Build&lt;/font&gt;" style="ellipse;whiteSpace=wrap;html=1;aspect=fixed;" parent="1" vertex="1">
          <mxGeometry x="440" y="490" width="100" height="100" as="geometry" />
        </mxCell>
        <mxCell id="h6P8nCgVh_O-HDzW5caL-6" value="&lt;font style=&quot;font-size: 18px;&quot;&gt;Java CI&amp;nbsp;&lt;/font&gt;&lt;div&gt;&lt;font style=&quot;font-size: 18px;&quot;&gt;with Gradle&lt;/font&gt;&lt;/div&gt;" style="rounded=1;whiteSpace=wrap;html=1;" parent="1" vertex="1">
          <mxGeometry x="190" y="510" width="120" height="60" as="geometry" />
        </mxCell>
        <mxCell id="h6P8nCgVh_O-HDzW5caL-7" style="edgeStyle=orthogonalEdgeStyle;rounded=0;orthogonalLoop=1;jettySize=auto;html=1;entryX=0;entryY=0.5;entryDx=0;entryDy=0;" parent="1" source="h6P8nCgVh_O-HDzW5caL-8" target="eLSRReAdFemIOKwLZGMY-1" edge="1">
          <mxGeometry relative="1" as="geometry" />
        </mxCell>
        <mxCell id="h6P8nCgVh_O-HDzW5caL-8" value="&lt;font style=&quot;font-size: 18px;&quot;&gt;Build&lt;/font&gt;" style="ellipse;whiteSpace=wrap;html=1;aspect=fixed;" parent="1" vertex="1">
          <mxGeometry x="443" y="630" width="100" height="100" as="geometry" />
        </mxCell>
        <mxCell id="h6P8nCgVh_O-HDzW5caL-9" value="&lt;font style=&quot;font-size: 18px;&quot;&gt;Sonarqube&lt;/font&gt;&lt;div&gt;&lt;font style=&quot;font-size: 18px;&quot;&gt;Analyze&lt;/font&gt;&lt;/div&gt;" style="rounded=1;whiteSpace=wrap;html=1;" parent="1" vertex="1">
          <mxGeometry x="193" y="650" width="120" height="60" as="geometry" />
        </mxCell>
        <mxCell id="3mGRXp6iqAVC4NsbLFMK-4" style="edgeStyle=orthogonalEdgeStyle;rounded=0;orthogonalLoop=1;jettySize=auto;html=1;entryX=0.5;entryY=0;entryDx=0;entryDy=0;" parent="1" source="h6P8nCgVh_O-HDzW5caL-11" target="h6P8nCgVh_O-HDzW5caL-9" edge="1">
          <mxGeometry relative="1" as="geometry">
            <Array as="points">
              <mxPoint x="840" y="610" />
              <mxPoint x="253" y="610" />
            </Array>
          </mxGeometry>
        </mxCell>
        <mxCell id="3mGRXp6iqAVC4NsbLFMK-7" value="&lt;font style=&quot;font-size: 14px;&quot;&gt;depends on&lt;/font&gt;" style="edgeLabel;html=1;align=center;verticalAlign=middle;resizable=0;points=[];" parent="3mGRXp6iqAVC4NsbLFMK-4" vertex="1" connectable="0">
          <mxGeometry x="0.4803" y="-2" relative="1" as="geometry">
            <mxPoint x="189" y="2" as="offset" />
          </mxGeometry>
        </mxCell>
        <mxCell id="h6P8nCgVh_O-HDzW5caL-11" value="&lt;font style=&quot;font-size: 18px;&quot;&gt;Test&lt;/font&gt;" style="ellipse;whiteSpace=wrap;html=1;aspect=fixed;" parent="1" vertex="1">
          <mxGeometry x="790" y="490" width="100" height="100" as="geometry" />
        </mxCell>
        <mxCell id="h6P8nCgVh_O-HDzW5caL-12" value="" style="endArrow=none;html=1;rounded=0;exitX=1;exitY=0.5;exitDx=0;exitDy=0;entryX=0;entryY=0.5;entryDx=0;entryDy=0;" parent="1" source="h6P8nCgVh_O-HDzW5caL-3" edge="1">
          <mxGeometry width="50" height="50" relative="1" as="geometry">
            <mxPoint x="523" y="955" as="sourcePoint" />
            <mxPoint x="443" y="820" as="targetPoint" />
          </mxGeometry>
        </mxCell>
        <mxCell id="h6P8nCgVh_O-HDzW5caL-13" value="" style="endArrow=none;html=1;rounded=0;exitX=1;exitY=0.5;exitDx=0;exitDy=0;entryX=0;entryY=0.5;entryDx=0;entryDy=0;" parent="1" source="h6P8nCgVh_O-HDzW5caL-6" target="h6P8nCgVh_O-HDzW5caL-5" edge="1">
          <mxGeometry width="50" height="50" relative="1" as="geometry">
            <mxPoint x="310" y="539.5" as="sourcePoint" />
            <mxPoint x="440" y="539.5" as="targetPoint" />
          </mxGeometry>
        </mxCell>
        <mxCell id="h6P8nCgVh_O-HDzW5caL-14" value="" style="endArrow=none;html=1;rounded=0;entryX=0;entryY=0.5;entryDx=0;entryDy=0;exitX=1;exitY=0.5;exitDx=0;exitDy=0;" parent="1" source="h6P8nCgVh_O-HDzW5caL-9" target="h6P8nCgVh_O-HDzW5caL-8" edge="1">
          <mxGeometry width="50" height="50" relative="1" as="geometry">
            <mxPoint x="313" y="690" as="sourcePoint" />
            <mxPoint x="443" y="679.5" as="targetPoint" />
          </mxGeometry>
        </mxCell>
        <mxCell id="h6P8nCgVh_O-HDzW5caL-15" value="&lt;font style=&quot;font-size: 24px;&quot;&gt;âœ…&lt;/font&gt;" style="ellipse;whiteSpace=wrap;html=1;aspect=fixed;" parent="1" vertex="1">
          <mxGeometry x="960" y="625" width="110" height="110" as="geometry" />
        </mxCell>
        <mxCell id="h6P8nCgVh_O-HDzW5caL-16" value="" style="image;points=[];aspect=fixed;html=1;align=center;shadow=0;dashed=0;image=img/lib/allied_telesis/computer_and_terminals/Personal_Computer.svg;" parent="1" vertex="1">
          <mxGeometry x="462.82" y="292.59999999999997" width="60.36" height="81.8" as="geometry" />
        </mxCell>
        <mxCell id="h6P8nCgVh_O-HDzW5caL-17" value="&lt;font style=&quot;font-size: 18px;&quot;&gt;GitHub Server&lt;/font&gt;" style="image;points=[];aspect=fixed;html=1;align=center;shadow=0;dashed=0;image=img/lib/allied_telesis/computer_and_terminals/Server_Desktop.svg;" parent="1" vertex="1">
          <mxGeometry x="632.6800000000001" y="300" width="68.63" height="87" as="geometry" />
        </mxCell>
        <mxCell id="h6P8nCgVh_O-HDzW5caL-18" style="edgeStyle=orthogonalEdgeStyle;rounded=0;orthogonalLoop=1;jettySize=auto;html=1;entryX=-0.003;entryY=0.5;entryDx=0;entryDy=0;entryPerimeter=0;" parent="1" source="h6P8nCgVh_O-HDzW5caL-16" target="h6P8nCgVh_O-HDzW5caL-17" edge="1">
          <mxGeometry relative="1" as="geometry">
            <Array as="points">
              <mxPoint x="570" y="344" />
            </Array>
          </mxGeometry>
        </mxCell>
        <mxCell id="h6P8nCgVh_O-HDzW5caL-20" value="" style="endArrow=none;html=1;rounded=0;entryX=0.5;entryY=0;entryDx=0;entryDy=0;edgeStyle=orthogonalEdgeStyle;" parent="1" target="h6P8nCgVh_O-HDzW5caL-6" edge="1" source="h6P8nCgVh_O-HDzW5caL-17">
          <mxGeometry width="50" height="50" relative="1" as="geometry">
            <mxPoint x="290" y="310" as="sourcePoint" />
            <mxPoint x="530" y="330" as="targetPoint" />
            <Array as="points">
              <mxPoint x="840" y="344" />
              <mxPoint x="840" y="430" />
              <mxPoint x="250" y="430" />
            </Array>
          </mxGeometry>
        </mxCell>
        <mxCell id="h6P8nCgVh_O-HDzW5caL-22" value="&lt;font style=&quot;font-size: 18px;&quot;&gt;PC where&amp;nbsp;&lt;/font&gt;&lt;div&gt;&lt;font style=&quot;font-size: 18px;&quot;&gt;code is written&lt;/font&gt;&lt;/div&gt;" style="text;html=1;align=center;verticalAlign=middle;resizable=0;points=[];autosize=1;strokeColor=none;fillColor=none;" parent="1" vertex="1">
          <mxGeometry x="420" y="364.4" width="140" height="60" as="geometry" />
        </mxCell>
        <mxCell id="eLSRReAdFemIOKwLZGMY-3" style="edgeStyle=orthogonalEdgeStyle;rounded=0;orthogonalLoop=1;jettySize=auto;html=1;entryX=0;entryY=0.5;entryDx=0;entryDy=0;" parent="1" source="eLSRReAdFemIOKwLZGMY-1" target="eLSRReAdFemIOKwLZGMY-2" edge="1">
          <mxGeometry relative="1" as="geometry" />
        </mxCell>
        <mxCell id="eLSRReAdFemIOKwLZGMY-1" value="&lt;font style=&quot;font-size: 18px;&quot;&gt;Analysis&lt;/font&gt;" style="ellipse;whiteSpace=wrap;html=1;aspect=fixed;" parent="1" vertex="1">
          <mxGeometry x="617" y="630" width="100" height="100" as="geometry" />
        </mxCell>
        <mxCell id="3mGRXp6iqAVC4NsbLFMK-5" style="edgeStyle=orthogonalEdgeStyle;rounded=0;orthogonalLoop=1;jettySize=auto;html=1;entryX=0.5;entryY=0;entryDx=0;entryDy=0;" parent="1" source="eLSRReAdFemIOKwLZGMY-2" target="h6P8nCgVh_O-HDzW5caL-3" edge="1">
          <mxGeometry relative="1" as="geometry">
            <Array as="points">
              <mxPoint x="840" y="750" />
              <mxPoint x="253" y="750" />
            </Array>
          </mxGeometry>
        </mxCell>
        <mxCell id="eLSRReAdFemIOKwLZGMY-2" value="&lt;font style=&quot;font-size: 18px;&quot;&gt;Quality&lt;/font&gt;&lt;div&gt;&lt;font style=&quot;font-size: 18px;&quot;&gt;gate&lt;/font&gt;&lt;/div&gt;" style="ellipse;whiteSpace=wrap;html=1;aspect=fixed;" parent="1" vertex="1">
          <mxGeometry x="790" y="630" width="100" height="100" as="geometry" />
        </mxCell>
        <mxCell id="eLSRReAdFemIOKwLZGMY-6" value="" style="edgeStyle=orthogonalEdgeStyle;rounded=0;orthogonalLoop=1;jettySize=auto;html=1;entryX=0;entryY=0.5;entryDx=0;entryDy=0;" parent="1" target="eLSRReAdFemIOKwLZGMY-5" edge="1">
          <mxGeometry relative="1" as="geometry">
            <mxPoint x="543" y="820" as="sourcePoint" />
            <mxPoint x="985" y="910" as="targetPoint" />
          </mxGeometry>
        </mxCell>
        <mxCell id="eLSRReAdFemIOKwLZGMY-5" value="&lt;font style=&quot;font-size: 18px;&quot;&gt;Build Docker&lt;/font&gt;&lt;div&gt;&lt;font size=&quot;3&quot;&gt;Image&lt;/font&gt;&lt;/div&gt;" style="ellipse;whiteSpace=wrap;html=1;aspect=fixed;" parent="1" vertex="1">
          <mxGeometry x="614" y="770" width="100" height="100" as="geometry" />
        </mxCell>
        <mxCell id="eLSRReAdFemIOKwLZGMY-8" value="" style="edgeStyle=orthogonalEdgeStyle;rounded=0;orthogonalLoop=1;jettySize=auto;html=1;entryX=0;entryY=0.5;entryDx=0;entryDy=0;" parent="1" source="eLSRReAdFemIOKwLZGMY-5" target="eLSRReAdFemIOKwLZGMY-7" edge="1">
          <mxGeometry relative="1" as="geometry">
            <mxPoint x="710" y="820" as="sourcePoint" />
            <mxPoint x="985" y="910" as="targetPoint" />
          </mxGeometry>
        </mxCell>
        <mxCell id="3mGRXp6iqAVC4NsbLFMK-6" style="edgeStyle=orthogonalEdgeStyle;rounded=0;orthogonalLoop=1;jettySize=auto;html=1;entryX=0.5;entryY=1;entryDx=0;entryDy=0;" parent="1" source="eLSRReAdFemIOKwLZGMY-7" target="h6P8nCgVh_O-HDzW5caL-15" edge="1">
          <mxGeometry relative="1" as="geometry" />
        </mxCell>
        <mxCell id="eLSRReAdFemIOKwLZGMY-7" value="&lt;font style=&quot;font-size: 16px;&quot;&gt;Push image to Docker Hub&lt;/font&gt;" style="ellipse;whiteSpace=wrap;html=1;aspect=fixed;" parent="1" vertex="1">
          <mxGeometry x="790" y="770" width="100" height="100" as="geometry" />
        </mxCell>
        <mxCell id="3mGRXp6iqAVC4NsbLFMK-8" value="&lt;font style=&quot;font-size: 14px;&quot;&gt;depends on&lt;/font&gt;" style="edgeLabel;html=1;align=center;verticalAlign=middle;resizable=0;points=[];" parent="1" vertex="1" connectable="0">
          <mxGeometry x="570" y="750" as="geometry">
            <mxPoint x="2" y="-2" as="offset" />
          </mxGeometry>
        </mxCell>
      </root>
    </mxGraphModel>
  </diagram>
</mxfile>
